<svg width="625" height="680" viewBox="0 0 625 680" fill="none" xmlns="http://www.w3.org/2000/svg">
<ellipse cx="328" cy="340.5" rx="286" ry="288.5" fill="#A3DC9F" fill-opacity="0.48"/>
<path d="M373.032 286.331C375.164 274.256 377.255 262.77 379.346 251.284C359.467 293.156 340.032 335.162 340.618 384.04C337.199 383.029 336.384 380.612 335.372 378.582C317.156 342.059 309.426 303.437 312.994 262.251C317.769 207.153 341.392 161.209 375.244 120.039C383.001 110.605 391.33 101.741 399.86 93.0622C403.285 89.5784 405.661 89.39 408.669 93.6328C434.443 129.988 453.046 169.702 457.872 215.013C462.852 261.778 450.132 303.354 420.364 339.063C405.895 356.419 388.938 370.681 370.603 383.281C368.841 384.491 367.225 386.176 363.63 385.711C364.659 352.599 367.742 319.662 373.032 286.331Z" fill="#45B186" fill-opacity="0.6"/>
<path d="M144.342 147.201C145.602 136.754 147.068 126.959 148.014 117.109C148.485 112.196 150.637 111.654 154.502 112.827C187.124 122.726 217.029 137.946 242.78 161.414C271.073 187.201 287.974 219.309 291.451 258.447C294.196 289.352 288.148 318.998 277.645 347.791C277.248 348.878 276.683 349.813 274.458 350.226C253.113 317.709 233.5 283.65 217.017 247.476C215.831 255.806 218.68 263.471 220.38 271.253C222.155 279.378 224.248 287.442 226.555 295.423C228.863 303.405 231.293 311.38 234.248 319.118C237.203 326.858 240.714 334.383 244.276 341.849C247.78 349.192 252.49 355.802 258.678 363.343C252.852 363.079 249.691 361.087 246.536 359.411C201.504 335.499 170.967 298.443 154.875 248.606C144.305 215.872 141.56 182.137 144.342 147.201Z" fill="#45B186" fill-opacity="0.6"/>
<path d="M236.442 410.075C235.648 407.9 234.926 406.24 234.505 404.502C233.639 400.921 234.282 397.769 237.407 395.557C240.598 393.299 243.066 394.922 245.531 397.112C254.118 404.744 261.65 413.491 269.641 421.753C271.887 424.075 273.731 426.987 277.182 427.912C279.062 425.089 276.877 423.079 275.976 421.101C270.128 408.265 264.069 395.535 258.141 382.739C256.304 378.772 254.425 374.378 259.166 371.358C263.945 368.314 267.397 371.699 270.264 375.273C274.187 380.162 276.665 385.959 279.208 391.708C283.678 401.812 288.958 411.371 297.109 418.837C299.049 420.615 301.169 422.811 303.985 421.166C306.862 419.485 306.873 416.387 306.451 413.363C304.991 402.892 303.436 392.434 302.076 381.949C301.437 377.025 301.251 372.068 302.674 367.185C303.338 364.906 304.206 362.84 306.662 362.365C309.317 361.852 311.322 363.268 312.701 365.465C315.084 369.263 316.789 373.418 317.95 377.788C321.468 391.025 324.487 404.427 328.538 417.482C334.449 436.531 343.899 438.934 358.451 425.692C363.715 420.901 368.166 415.388 371.262 408.805C373.358 404.347 376.42 400.998 380.987 399.402C387.295 397.199 392.399 401.915 391.136 408.744C390.377 412.856 387.987 416.149 385.816 419.502C356.596 464.638 347.084 514.644 351.075 568.301C353.335 598.681 357.431 628.711 363.504 658.483C364.047 661.148 364.545 663.707 361.824 665.755C346.822 677.051 330.903 683.981 312.071 677.512C310.027 676.81 308.031 675.876 306.128 674.824C297.161 669.867 291.936 664.006 293.6 651.472C298.847 611.96 301.091 572.108 302.553 532.249C303.311 511.557 297.216 493.64 280.946 480.404C273.396 474.261 265.13 469.365 256.904 464.357C249.939 460.118 243.415 455.268 238.841 448.158C236.6 444.674 234.834 440.573 237.961 436.991C240.903 433.619 244.556 435.932 247.481 437.701C254.711 442.073 261.761 446.771 269.41 450.727C259.587 436.273 245.26 425.927 236.442 410.075Z" fill="#4D4D4D" fill-opacity="0.66"/>
<path d="M55.5209 314.04C85.5533 302.034 115.682 297.167 146.727 306.747C183.599 318.124 209.074 344.372 229.729 376.725C230.18 377.432 230.319 378.355 231.052 380.479C195.822 380.959 161.802 375.933 127.689 370.288C134.871 375.319 142.99 378.393 150.953 381.712C159.383 385.225 167.864 388.691 176.532 391.474C184.988 394.19 193.675 396.171 202.322 398.19C210.983 400.211 219.862 400.233 229.155 400.1C228.4 404.307 225.282 404.858 223.042 406.048C172.413 432.959 121.541 432.046 70.7081 406.869C45.0001 394.136 23.171 375.723 2.85996 355.158C-1.64129 350.6 -0.471796 348.028 3.88125 344.651C19.7617 332.331 36.6062 321.838 55.5209 314.04Z" fill="#45B186" fill-opacity="0.6"/>
<path d="M569.311 312.279C586.044 314.283 601.955 317.422 617.682 321.625C625.883 323.816 626.415 324.601 623.075 332.487C611.051 360.875 595.245 386.517 572.574 407.07C534.59 441.506 491.433 447.688 444.422 432.291C434.912 429.177 425.722 425.164 416.805 420.507C414.927 419.526 412.656 419.021 411.218 415.389C441.961 398.389 473.633 383.552 506.809 372.05C470.884 375.008 435.115 378.48 403.275 398.283C401.518 396.015 403.006 394.815 403.721 393.612C431.503 346.846 471.896 320.595 523.972 313.226C538.87 311.118 553.786 312.006 569.311 312.279Z" fill="#45B186" fill-opacity="0.6"/>
<path d="M340.228 51.972C361.689 103.933 337.346 149.775 305.21 175.255C301.124 149.883 301.463 124.864 301.343 99.8205C293.437 124.348 288.2 149.247 291.721 175.581C287.779 175.168 286.811 172.036 285.368 169.783C261.482 132.478 258.289 92.7835 273.143 51.1503C279.294 33.9108 288.261 18.288 298.654 3.45803C301.861 -1.11698 304.12 -0.976924 307.718 2.84379C321.187 17.1427 332.381 33.0265 340.228 51.972Z" fill="#45B186" fill-opacity="0.6"/>
<path d="M100.339 492.424C133.379 440.564 186.793 438.612 227.428 460.081C208.5 473.417 189.044 484.177 169.227 494.473C192.017 491.404 213.826 485.457 233.3 471.463C234.802 474.761 232.95 476.791 231.927 478.72C211.853 516.574 180.479 536.44 139.805 541.793C121.757 544.168 104.033 542.283 86.2611 539.261C81.2379 538.407 80.1827 536.416 81.8046 531.544C86.368 517.835 92.158 504.796 100.339 492.424Z" fill="#45B186" fill-opacity="0.6"/>
<path d="M479.594 266.132C488.602 220.031 516.15 191.661 556.501 175.167C565.569 171.46 574.946 168.761 584.43 166.406C588.239 165.461 590.48 166.246 590.701 170.462C592.326 201.539 588.962 231.515 570.053 257.103C553.677 279.264 530.698 288.747 504.662 290.951C499.922 291.352 495.013 293.684 488.873 290.77C500.663 271.946 513.874 254.921 527.449 238.044C508.915 249.731 492.072 263.404 479.354 283.536C477.577 277.065 478.574 271.891 479.594 266.132Z" fill="#45B186" fill-opacity="0.6"/>
<path d="M540.158 536.712C519.309 545.113 498.063 548.062 476.535 545.16C443.227 540.668 421.332 520.148 408.184 488.717C405.526 482.363 402.714 476.002 401.179 467.266C421.793 473.037 439.982 482.423 458.918 489.995C444.013 474.83 427.365 462.575 407.298 455.904C407.907 452.781 410.144 453.066 411.89 452.732C449.599 445.515 482.04 456.799 509.951 483.425C523.519 496.369 533.71 512.051 542.489 528.78C544.151 531.945 545.764 535.14 540.158 536.712Z" fill="#45B186" fill-opacity="0.6"/>
<path d="M57.2245 187.399C76.2149 189.973 93.2613 195.921 107.125 209.35C125.367 227.021 132.593 249.856 135.623 276.447C117.484 268.116 102.566 256.768 86.4076 247.451C97.39 263.688 111.117 276.721 128.007 286.093C126.614 289.405 124.099 288.266 122.221 288.269C81.715 288.331 51.5761 268.951 29.8053 234.257C23.0344 223.466 17.8611 211.793 13.7615 199.612C10.7461 190.653 11.104 190.302 20.3647 188.637C32.4184 186.47 44.5229 187.396 57.2245 187.399Z" fill="#45B186" fill-opacity="0.6"/>
</svg>
